<?xml version="1.0" standalone="no"?>
<!DOCTYPE svg PUBLIC "-//W3C//DTD SVG 20010904//EN"
 "http://www.w3.org/TR/2001/REC-SVG-20010904/DTD/svg10.dtd">
<svg version="1.0" xmlns="http://www.w3.org/2000/svg"
 width="1200.000000pt" height="1200.000000pt" viewBox="0 0 1200.000000 1200.000000"
 preserveAspectRatio="xMidYMid meet">
<metadata>
Created by potrace 1.14, written by Peter Selinger 2001-2017
</metadata>
<g transform="translate(0.000000,1200.000000) scale(0.100000,-0.100000)"
fill="#000000" stroke="none">
<path d="M3039 10228 c-1 -30 -1 -8449 0 -8465 1 -10 600 -13 2961 -13 l2960
0 1 23 c1 29 1 8448 0 8465 -1 9 -600 12 -2961 12 l-2960 0 -1 -22z m5795
-4231 l1 -4117 -2832 0 c-2691 0 -2833 1 -2834 18 0 9 -1 1863 -2 4120 l-2
4102 2834 -2 2834 -3 1 -4118z"/>
<path d="M6989 8886 c-2 -2 -36 -6 -74 -10 -83 -8 -87 -8 -279 -47 -81 -17
-178 -39 -214 -51 -36 -11 -72 -21 -81 -23 -9 -2 -68 -21 -131 -43 -380 -130
-739 -321 -1020 -546 -71 -57 -236 -217 -290 -281 -315 -377 -387 -785 -208
-1183 15 -35 28 -68 28 -74 0 -5 -21 -57 -46 -116 -40 -93 -71 -174 -130 -338
-22 -62 -24 -83 -12 -110 13 -29 50 -41 87 -28 22 8 33 29 76 144 60 161 125
321 137 335 4 5 8 17 8 27 0 20 -1 19 163 48 485 84 861 274 1220 619 64 62
94 97 86 102 -15 9 -372 5 -490 -6 -82 -7 -87 -6 -107 16 -27 28 -28 60 -4 88
20 24 41 28 237 46 65 7 329 6 380 0 130 -16 117 -19 155 33 19 25 42 53 50
62 8 8 25 29 37 46 l22 31 -62 11 c-34 7 -75 14 -92 18 -16 3 -88 8 -160 11
-148 6 -171 12 -185 48 -14 38 -13 48 12 74 21 23 24 24 162 18 178 -8 220
-13 331 -42 49 -13 90 -23 91 -22 4 9 63 86 77 102 10 11 37 45 60 75 23 30
47 60 52 66 6 6 24 29 40 50 119 153 299 337 439 448 96 76 107 93 121 174 11
64 2 65 -150 6 -137 -54 -435 -183 -445 -194 -3 -3 -59 -32 -124 -65 -373
-187 -817 -489 -1080 -734 -181 -169 -314 -311 -425 -456 -17 -22 -38 -49 -47
-60 -21 -27 -136 -195 -150 -220 -54 -97 -100 -173 -112 -187 -29 -35 -103
-14 -115 32 -5 20 16 67 78 175 34 59 156 248 165 255 3 3 17 20 30 39 48 68
185 229 280 326 143 148 272 266 410 376 157 126 463 337 585 405 11 6 65 37
120 69 137 80 575 295 601 295 2 0 23 9 47 20 23 10 94 39 157 64 l115 44 -40
18 c-33 15 -70 19 -211 21 -95 1 -173 1 -175 -1z"/>
<path d="M5575 4747 c-39 -39 -44 -70 -20 -117 35 -68 135 -70 176 -4 40 66 1
140 -80 151 -36 5 -44 2 -76 -30z"/>
<path d="M5890 4295 l0 -485 80 0 c57 0 80 4 81 13 1 6 2 225 3 484 l1 473
-82 0 -83 0 0 -485z"/>
<path d="M6219 4763 c-3 -62 -4 -930 -1 -940 3 -9 29 -13 83 -13 l79 0 0 485
0 485 -80 0 c-69 0 -80 -2 -81 -17z"/>
<path d="M4075 4741 c-212 -61 -337 -230 -337 -456 -1 -100 11 -154 50 -235
33 -69 122 -159 190 -194 97 -49 239 -69 336 -46 44 10 38 13 149 -107 26 -29
57 -57 68 -64 31 -16 211 -21 201 -4 -4 7 -49 58 -101 114 -135 146 -130 128
-65 194 47 49 81 106 108 182 18 50 24 154 14 240 -19 149 -115 282 -251 345
-79 37 -102 42 -212 45 -63 2 -108 -2 -150 -14z m242 -147 c75 -22 143 -88
172 -167 52 -143 20 -324 -74 -405 -52 -46 -100 -64 -185 -68 -61 -3 -86 1
-134 21 -32 13 -70 34 -83 47 -101 94 -128 302 -57 439 66 124 209 177 361
133z"/>
<path d="M6780 4487 c-3 -3 -19 -7 -36 -10 -44 -7 -105 -40 -143 -79 -63 -63
-94 -152 -93 -261 2 -146 63 -249 182 -306 47 -22 68 -26 150 -26 116 0 178
24 240 91 68 73 84 121 84 249 1 94 -2 117 -22 161 -49 108 -151 174 -282 182
-41 2 -77 2 -80 -1z m146 -142 c93 -61 107 -304 21 -383 -45 -41 -149 -49
-197 -14 -87 63 -103 272 -27 367 15 19 42 38 60 43 44 12 115 6 143 -13z"/>
<path d="M7521 4459 c-30 -16 -60 -37 -67 -46 -12 -17 -13 -16 -14 9 0 42 -24
58 -88 58 l-57 0 0 -335 0 -335 82 0 82 0 -1 228 c0 125 0 237 1 249 1 30 67
73 112 75 49 2 75 -9 95 -40 16 -24 19 -54 20 -262 1 -129 3 -238 3 -242 1 -5
37 -8 81 -8 l80 0 0 233 c0 212 2 235 20 264 23 39 52 55 95 55 49 0 71 -10
92 -40 16 -24 18 -52 20 -247 1 -121 2 -230 2 -242 1 -22 5 -23 82 -23 l80 0
-3 258 c-3 246 -4 259 -27 305 -30 61 -74 95 -145 109 -99 21 -202 -13 -252
-83 l-21 -29 -24 37 c-38 58 -72 78 -138 80 -46 1 -67 -4 -110 -28z"/>
<path d="M4812 4223 l3 -258 29 -53 c40 -72 96 -105 182 -108 74 -3 112 9 175
53 l47 33 6 -34 c8 -40 20 -46 90 -46 l53 0 0 335 1 335 -82 0 -81 0 0 -244 0
-244 -48 -32 c-52 -34 -106 -41 -156 -21 -50 21 -55 46 -57 291 -1 124 -3 231
-3 238 -1 8 -24 12 -82 12 l-81 0 4 -257z"/>
<path d="M5563 4145 l0 -335 82 0 81 0 0 335 0 335 -81 0 -82 0 0 -335z"/>
</g>
</svg>
